# xmcd
#
# Track frame offsets:
#	150
#	11970
#	23776
#	33119
#	46802
#	60238
#	72225
#	83309
#	94029
#	105183
#	115732
#	126427
#	136935
#	148756
#	161991
#	174756
#	185293
#	198158
#	208870
#	222197
#
# Disc length: 3123 seconds
#
# Revision: 1
# Processed by: cddbd v1.5.2PL0 Copyright (c) Steve Scherf et al.
# Submitted via: audiograbber 1.83.01
#
DISCID=060c3114
DTITLE=Various Artist - Country Top Hits of the 60s
DYEAR=2007
DGENRE=Country
TTITLE0=Johnny Cash - Ring Of Fire
TTITLE1=Henson Cargill - Skip A Rope
TTITLE2=Flatt and Scruggs - The Ballad Of Jed Clampett
TTITLE3=Lefty Frizzell - Saginaw, Michigan
TTITLE4=Claude King - Wolverton Mountain
TTITLE5=Eddy Arnold - Make The World Go Away
TTITLE6="Little" Jimmy Dickens - May The Bird Of Paradise Fly Up Your Nose
TTITLE7=Hank Locklin - Please Help Me, I'm Falling
TTITLE8=Floyd Cramer - Last Date
TTITLE9=The Statler Brothers - Flowers On The Wall
TTITLE10=Porter Wagoner - Green, Green Grass Of Home
TTITLE11=Jim Reeves - He'll Have To Go
TTITLE12=Skeeter Davis - The End Of The World
TTITLE13=David Houston - Almost Persuaded
TTITLE14=Bobby Bare - Detroit City
TTITLE15=Jim Ed Brown and The Browns - Pop A Top
TTITLE16=Billy Walker - Funny How Time Slips Away
TTITLE17=Porter Wagoner and Dolly Parton - Just Someone I Used To Know
TTITLE18=Carl Butler - Don't Let Me Cross Over
TTITLE19=Tammy Wynette - Stand By Your Man
EXTD=
EXTT0=
EXTT1=
EXTT2=
EXTT3=
EXTT4=
EXTT5=
EXTT6=
EXTT7=
EXTT8=
EXTT9=
EXTT10=
EXTT11=
EXTT12=
EXTT13=
EXTT14=
EXTT15=
EXTT16=
EXTT17=
EXTT18=
EXTT19=
PLAYORDER=
